<svg width="60" height="60" viewBox="0 0 64 64" fill="none" xmlns="http://www.w3.org/2000/svg">
<path d="M17 22.7008C17 21.2717 17.7625 19.9512 19.0001 19.2367L33.0001 11.1545C34.2377 10.4401 35.7623 10.4401 36.9999 11.1545L50.9999 19.2367C52.2375 19.9512 53 21.2717 53 22.7008V47C53 49.2092 51.2091 51 49 51H21C18.7909 51 17 49.2092 17 47V22.7008Z" fill="url(#paint0_linear_21_200)"/>
<path d="M11 38.7338C11 37.2851 11.7833 35.9496 13.0478 35.2425L24.0478 29.0916C25.2609 28.4133 26.7391 28.4133 27.9522 29.0916L38.9522 35.2425C40.2167 35.9496 41 37.2851 41 38.7338V52C41 54.2091 39.2091 56 37 56H15C12.7909 56 11 54.2091 11 52V38.7338Z" fill="url(#paint1_linear_21_200)"/>
<path d="M26 26.0003C25.6422 25.9943 25.2782 26.0804 24.9458 26.2683L9.02186 35.2678C8.04469 35.8201 7.70989 37.0432 8.27406 37.9997C8.83823 38.9563 10.0877 39.284 11.0649 38.7317L26 30.291L40.9351 38.7317C41.9123 39.284 43.1618 38.9563 43.7259 37.9997C44.2901 37.0432 43.9553 35.8201 42.9781 35.2678L27.0542 26.2683C26.7218 26.0804 26.3578 25.9943 26 26.0003Z" fill="url(#paint2_linear_21_200)"/>
<path d="M35 8.00038C34.6187 7.99327 34.2306 8.08538 33.8762 8.28743L15.0853 19.0012C14.0475 19.5929 13.6919 20.9034 14.2911 21.9283C14.8902 22.9531 16.2173 23.3043 17.255 22.7126L35 12.5952L52.745 22.7126C53.7827 23.3043 55.1098 22.9531 55.7089 21.9283C56.3081 20.9034 55.9525 19.5929 54.9147 19.0012L36.1238 8.28743C35.7694 8.08538 35.3813 7.99327 35 8.00038Z" fill="url(#paint3_linear_21_200)"/>
<path d="M21 48C21 46.8954 21.8954 46 23 46H29C30.1046 46 31 46.8954 31 48V56H21V48Z" fill="url(#paint4_linear_21_200)"/>
<defs>
<linearGradient id="paint0_linear_21_200" x1="35" y1="10.6187" x2="35" y2="51" gradientUnits="userSpaceOnUse">
<stop stop-color="white" stop-opacity="0.5"/>
<stop offset="1" stop-color="white" stop-opacity="0"/>
</linearGradient>
<linearGradient id="paint1_linear_21_200" x1="26" y1="28.5829" x2="26" y2="56" gradientUnits="userSpaceOnUse">
<stop stop-color="white" stop-opacity="0.5"/>
<stop offset="1" stop-color="white" stop-opacity="0"/>
</linearGradient>
<linearGradient id="paint2_linear_21_200" x1="23.8824" y1="26" x2="23.8824" y2="39" gradientUnits="userSpaceOnUse">
<stop stop-color="white" stop-opacity="0.8"/>
<stop offset="1" stop-color="white" stop-opacity="0"/>
</linearGradient>
<linearGradient id="paint3_linear_21_200" x1="32.5294" y1="8" x2="32.5294" y2="23" gradientUnits="userSpaceOnUse">
<stop stop-color="white" stop-opacity="0.8"/>
<stop offset="1" stop-color="white" stop-opacity="0"/>
</linearGradient>
<linearGradient id="paint4_linear_21_200" x1="26" y1="46" x2="26" y2="56" gradientUnits="userSpaceOnUse">
<stop stop-color="white" stop-opacity="0.5"/>
<stop offset="1" stop-color="white" stop-opacity="0"/>
</linearGradient>
</defs>
</svg>
