<svg width="20" height="20" viewBox="0 0 20 20" fill="#616865" xmlns="http://www.w3.org/2000/svg">
<path fill-rule="evenodd" clip-rule="evenodd" d="M17.7735 4.44182L11.7264 1.29706V1.296C11.3556 1.10228 10.9319 1 10.5 1C10.0681 1 9.64435 1.10228 9.27356 1.296L3.22646 4.44076C2.46754 4.83598 2.00004 5.56586 2.00004 6.35524V12.6447C1.99762 13.0295 2.10936 13.4081 2.32433 13.7437C2.5393 14.0793 2.85016 14.3603 3.22646 14.5592L9.27356 17.704C9.64435 17.8977 10.0681 18 10.5 18C10.9319 18 11.3556 17.8977 11.7264 17.704L17.7735 14.5592C18.5325 14.164 19 13.4341 19 12.6447V6.35524C19.0022 5.97073 18.8903 5.5923 18.6754 5.25691C18.4604 4.92154 18.1496 4.64069 17.7735 4.44182ZM15.0656 6.38072L10.4999 8.65746L5.93546 6.38072C5.86533 6.34592 5.78786 6.32395 5.70776 6.3161C5.62764 6.30826 5.54654 6.31471 5.46935 6.33507C5.39217 6.35543 5.32053 6.38927 5.2587 6.43454C5.19689 6.47982 5.14622 6.5356 5.10974 6.5985C5.03163 6.72609 5.0129 6.87517 5.0575 7.01456C5.10208 7.15395 5.2065 7.27286 5.34896 7.34644L9.894 9.61152V14.7929C9.89141 14.9363 9.95384 15.0747 10.0676 15.1778C10.1814 15.281 10.3373 15.3405 10.5012 15.3432C10.665 15.3405 10.8209 15.281 10.9347 15.1778C11.0485 15.0747 11.1109 14.9363 11.1082 14.7929V9.61152L15.6497 7.34644C15.7922 7.27286 15.8966 7.15395 15.9412 7.01456C15.9858 6.87517 15.967 6.72609 15.8889 6.5985C15.8524 6.53588 15.8018 6.48038 15.7402 6.43529C15.6786 6.39019 15.6072 6.35648 15.5303 6.33613C15.4534 6.31579 15.3726 6.30925 15.2928 6.31692C15.2129 6.32457 15.1356 6.34628 15.0656 6.38072Z" fill="#616865"/>
</svg>
